<?xml version="1.0" encoding="utf-8"?>
<!-- Generator: Adobe Illustrator 24.1.1, SVG Export Plug-In . SVG Version: 6.00 Build 0)  -->
<svg version="1.1" xmlns="http://www.w3.org/2000/svg" xmlns:xlink="http://www.w3.org/1999/xlink" x="0px" y="0px"
	 viewBox="0 0 720 720" style="enable-background:new 0 0 720 720;" xml:space="preserve">
<style type="text/css">
	.st0{display:none;}
	.st1{fill:#FFFFFF;}
	.st2{fill:#FFFFFF;stroke:#000000;stroke-miterlimit:10;}
	.st3{stroke:#000000;stroke-miterlimit:10;}
</style>
<g id="guias" class="st0">
</g>
<g id="fondo">
	<g>
		<path class="st1" d="M349.5,673.5c-84.14,0-163.24-32.77-222.74-92.26c-59.5-59.5-92.26-138.6-92.26-222.74
			s32.77-163.24,92.26-222.74S265.36,43.5,349.5,43.5s163.24,32.77,222.74,92.26c59.5,59.5,92.26,138.6,92.26,222.74
			s-32.77,163.24-92.26,222.74C512.74,640.73,433.64,673.5,349.5,673.5z"/>
		<path d="M349.5,53.5c41.18,0,81.12,8.06,118.71,23.96c36.32,15.36,68.94,37.36,96.95,65.37c28.02,28.02,50.01,60.64,65.37,96.95
			c15.9,37.59,23.96,77.53,23.96,118.71s-8.06,81.12-23.96,118.71c-15.36,36.32-37.36,68.94-65.37,96.95
			c-28.02,28.02-60.64,50.01-96.95,65.37c-37.59,15.9-77.53,23.96-118.71,23.96s-81.12-8.06-118.71-23.96
			c-36.32-15.36-68.94-37.36-96.95-65.37c-28.02-28.02-50.01-60.64-65.37-96.95C52.56,439.62,44.5,399.68,44.5,358.5
			s8.06-81.12,23.96-118.71c15.36-36.32,37.36-68.94,65.37-96.95c28.02-28.02,60.64-50.01,96.95-65.37
			C268.38,61.56,308.32,53.5,349.5,53.5 M349.5,33.5c-179.49,0-325,145.51-325,325s145.51,325,325,325s325-145.51,325-325
			S528.99,33.5,349.5,33.5L349.5,33.5z"/>
	</g>
</g>
<g id="j">
	<path class="st1" d="M470,0"/>
	<g>
		<path d="M230.64,521.18c-36.81,0-66.43-11.01-88.03-32.74c-36.18-36.38-38.02-91.58-38.11-97.36l54.44-0.8
			c0.09,3.18,0.96,20.75,9.43,38.1c8.61,17.64,27.03,38.67,65.9,38.67c1.92,0,3.9-0.05,5.89-0.15c39.56-5.47,57.52-28.6,65.64-47.04
			c8.78-19.96,8.21-38.88,8.21-39.07l0-115.44l-92.93,1.63v-51.17h148.18v166.62c0.01,0.34,0.81,32.43-13.88,65.33
			c-8.62,19.3-20.8,35.1-36.21,46.95c-19.27,14.82-43.67,23.51-72.54,25.8c-5.43,0.43-10.81,0.65-15.97,0.65
			C230.65,521.18,230.64,521.18,230.64,521.18z"/>
		<path d="M368.76,216.32l0,166.15c0.01,0.32,0.81,32.27-13.82,65.07c-8.58,19.23-20.71,34.97-36.06,46.78
			c-19.19,14.77-43.52,23.42-72.3,25.71c-5.43,0.43-10.78,0.65-15.93,0.65c-36.68,0-66.18-10.96-87.68-32.59
			c-19.77-19.88-29.04-45.31-33.34-63.14c-3.98-16.53-4.55-29.76-4.63-33.38l53.45-0.79c0.16,4.24,1.32,21.13,9.46,37.82
			c8.67,17.77,27.22,38.95,66.35,38.95c1.93,0,3.92-0.05,5.91-0.15l0.04,0l0.04-0.01c39.74-5.5,57.82-28.77,65.98-47.33
			c8.83-20.06,8.26-39.1,8.25-39.26V265.86v-1.02l-1.02,0.02l-91.92,1.61v-50.16H368.76 M369.76,215.32H220.58v52.17l92.93-1.63
			v114.95c0,0,2.68,75.08-73.37,85.6c-2.01,0.1-3.95,0.15-5.86,0.15c-74.76,0-74.84-76.78-74.84-76.78L104,390.59
			c0,0-0.77,131.09,126.66,131.09c5.12,0,10.46-0.21,16.01-0.65c127.03-10.1,123.1-138.59,123.1-138.59V215.32L369.76,215.32z"/>
	</g>
	<path class="st2" d="M368.5,471.5"/>
</g>
<g id="k">
	<path class="st3" d="M54,379"/>
	<g>
		<path d="M480.05,522.16l-109.6-130.71l36.68-35.05l145.77,165.77H480.05z M370.46,313.19l109.54-97.37h72.75L407.18,354.95
			L370.46,313.19z"/>
		<path d="M551.51,216.32L407.22,354.23l-36.05-40.99l109.03-96.91H551.51 M407.09,357.11l144.7,164.55h-71.51L371.13,391.48
			L407.09,357.11 M554,215.32h-74.18l-110.05,97.83l37.39,42.52L554,215.32L554,215.32z M407.15,355.67l-37.39,35.74l110.05,131.25
			H554L407.15,355.67L407.15,355.67z"/>
	</g>
</g>
</svg>
